# xmcd
#
# Track frame offsets:
#	150
#	17407
#	28212
#	38775
#	59745
#	72762
#	84660
#	113897
#	128582
#	145875
#	158115
#	170972
#	201050
#	211330
#	224315
#	234432
#	244650
#	258352
#	270707
#
# Disc length: 3756 seconds
#
# Revision: 2
# Processed by: cddbd v1.4b41PL3 Copyright (c) Steve Scherf et al.
# Submitted via: EZCDDA 4.3.2
#
DISCID=160eaa13
DTITLE=The Youngbloods - Darkness Darkeness
DYEAR=1900
DGENRE=
TTITLE0=Darkeness, Darkness
TTITLE1=Grizzly bear
TTITLE2=Statesboro blues
TTITLE3=Get together
TTITLE4=Four in the morning
TTITLE5=C.C. Rider
TTITLE6=Or sir Francis Drake
TTITLE7=Sunlight
TTITLE8=Beautiful
TTITLE9=Quicksand
TTITLE10=Sham
TTITLE11=Ride the wind
TTITLE12=Euphoria
TTITLE13=Too much monkey business
TTITLE14=Sugar babe
TTITLE15=Don't play games
TTITLE16=Fool me
TTITLE17=The wine song
TTITLE18=Reason to believe
EXTD=
EXTT0=
EXTT1=
EXTT2=
EXTT3=
EXTT4=
EXTT5=
EXTT6=
EXTT7=
EXTT8=
EXTT9=
EXTT10=
EXTT11=
EXTT12=
EXTT13=
EXTT14=
EXTT15=
EXTT16=
EXTT17=
EXTT18=
PLAYORDER=
